<svg xmlns="http://www.w3.org/2000/svg" xmlns:xlink="http://www.w3.org/1999/xlink" viewBox="0 0 212 45"><defs><style>.a{fill:none;}.b{clip-path:url(#a);}.c{font-size:32px;font-family:Verdana;}.d{fill:#67ffc7;}.d,.e,.f{stroke:#000;}.e{fill:#67a8ff;}.f{fill:#ff6767;}.g{stroke:none;}</style><clipPath id="a"><rect class="a" width="212" height="45"/></clipPath></defs><g class="b"><g transform="translate(-188 -77)"><text class="c" transform="translate(188 111)"><tspan x="0" y="0">Scheduler</tspan></text><g class="d" transform="translate(355 102)"><path class="g" d="M0,0H35a0,0,0,0,1,0,0V0A15,15,0,0,1,20,15H0a0,0,0,0,1,0,0V0A0,0,0,0,1,0,0Z"/><path class="a" d="M.675.5h33.65A.175.175,0,0,1,34.5.675v0A13.825,13.825,0,0,1,20.675,14.5h-20A.175.175,0,0,1,.5,14.325V.675A.175.175,0,0,1,.675.5Z"/></g><g class="e" transform="translate(355 92)"><path class="g" d="M0,0H40a0,0,0,0,1,0,0V0A15,15,0,0,1,25,15H0a0,0,0,0,1,0,0V0A0,0,0,0,1,0,0Z"/><path class="a" d="M.675.5h38.65A.175.175,0,0,1,39.5.675v0A13.825,13.825,0,0,1,25.675,14.5h-25A.175.175,0,0,1,.5,14.325V.675A.175.175,0,0,1,.675.5Z"/></g><g class="f" transform="translate(355 82)"><path class="g" d="M9.375,0H45a0,0,0,0,1,0,0V0A15,15,0,0,1,30,15H0a0,0,0,0,1,0,0V9.375A9.375,9.375,0,0,1,9.375,0Z"/><path class="a" d="M9.075.5h35.25A.175.175,0,0,1,44.5.675v0A13.825,13.825,0,0,1,30.675,14.5h-30A.175.175,0,0,1,.5,14.325V9.075A8.575,8.575,0,0,1,9.075.5Z"/></g></g></g></svg>